Coordinates
version=1
nRows=12
nColumns=33
inDegrees=yes

Units are S.I. units (second, meters, Newtons, ...)
Angles are in degrees.

endheader
time	ground_thorax_rot_x	ground_thorax_rot_y	ground_thorax_rot_z	ground_thorax_tx	ground_thorax_ty	ground_thorax_tz	clav_prot_r	clav_elev_r	scapula_abduction_r	scapula_elevation_r	scapula_upward_rot_r	scapula_winging_r	shoulder_elv_r	plane_of_elev_r	axial_rot_r	elbow_flexion_r	pro_sup_r	wrist_flex_r	wrist_dev_r	clav_prot_l	clav_elev_l	scapula_abduction_l	scapula_elevation_l	scapula_upward_rot_l	scapula_winging_l	shoulder_elv_l	plane_of_elev_l	axial_rot_l	elbow_flexion_l	pro_sup_l	wrist_flex_l	wrist_dev_l
      4.78000000	    -39.84055367	     -9.40061460	      7.96686412	   -189.92635554	    857.54979445	     -9.19721495	     10.33329368	    -45.00000000	     34.83968945	    -45.00000000	    -44.22301178	   1701.62795359	  -1910.09158519	    149.68482846	    -93.77816105	   1095.40339548	     51.56817593	     18.18477776	      5.43445309	     15.01378027	     38.34137137	    -36.96261715	    -45.00000000	    -45.00000000	   -275.94768362	  -2808.26663151	     19.12618757	    -47.52171542	   -347.23764457	     45.92731337	      5.99668961	    -22.23552080
      4.79000000	    -39.86524836	     -9.19046691	      7.71923506	   -189.22060601	    858.99168604	     -9.18557001	     10.30528687	    -45.00000000	     34.84028884	    -45.00000000	    -43.80905024	   1701.65518639	  -1909.95135284	    149.61007651	    -93.79455712	   1095.50610961	     52.53768268	     18.15705937	      5.34549240	     15.12536453	     38.36608657	    -37.17112291	    -45.00000000	    -45.00000000	   -275.83166057	  -2808.20360313	     19.38971296	    -47.14066951	   -347.15947833	     46.71719312	      5.90260292	    -22.26664305
      4.80000000	    -39.83379282	     -9.21887845	      7.59644164	   -188.45263223	    860.61424393	     -9.17885124	     10.39965787	    -45.00000000	     35.31469267	    -45.00000000	    -43.23162722	   1701.42936751	  -1909.88622843	    149.61081188	    -93.98494324	   1095.66345136	     53.35548867	     18.15976304	      5.24220931	     14.84735036	     38.25180973	    -37.26402951	    -45.00000000	    -45.00000000	   -275.82446404	  -2808.01056538	     19.35326924	    -46.52928619	   -346.97116636	     47.34611192	      5.70640479	    -22.26360179
      4.81000000	    -39.85938888	     -9.07575614	      7.36199138	   -187.60571467	    862.43011084	     -9.18054456	     10.29420803	    -45.00000000	     35.41355794	    -45.00000000	    -42.77878507	   1701.43326766	  -1909.69004967	    149.52703377	    -94.10818894	   1095.79986669	     54.20109569	     18.10436225	      5.11417861	     14.98357960	     38.32597398	    -37.45704484	    -45.00000000	    -45.00000000	   -275.69449365	  -2807.91030666	     19.56838301	    -45.97866027	   -346.87672062	     48.00758994	      5.61637756	    -22.30387019
      4.82000000	    -39.88117817	     -8.81511390	      7.09738153	   -186.67492861	    864.41933946	     -9.19100465	     10.19504145	    -45.00000000	     35.52710568	    -45.00000000	    -42.23101725	   1701.40931746	  -1909.53304684	    149.42669149	    -94.26012922	   1095.90491310	     55.13058322	     18.05852837	      5.01174874	     15.14463241	     38.37452696	    -37.78690414	    -45.00000000	    -45.00000000	   -275.50952410	  -2807.84012721	     19.80539310	    -45.48914386	   -346.82069910	     48.71138683	      5.52978569	    -22.32947098
      4.83000000	    -39.87234147	     -8.76869941	      6.91681905	   -185.64734209	    866.57689539	     -9.20757342	     10.29387329	    -45.00000000	     35.91683480	    -45.00000000	    -41.61248941	   1701.29633229	  -1909.39908540	    149.34059634	    -94.46342060	   1096.06473800	     55.99076942	     18.02025041	      4.89157493	     14.86987209	     38.26431497	    -37.91869131	    -45.00000000	    -45.00000000	   -275.50364534	  -2807.64789512	     19.87372505	    -44.72508081	   -346.68544441	     49.28435081	      5.38323256	    -22.33820160
      4.84000000	    -39.91389015	     -8.46377397	      6.54240008	   -184.52129257	    868.86780025	     -9.22598541	     10.02695410	    -45.00000000	     36.08859943	    -45.00000000	    -40.72256322	   1701.32442669	  -1909.18709529	    149.33781016	    -94.54137117	   1096.17839182	     57.15431170	     17.97227684	      4.78808320	     15.53908177	     38.53429543	    -38.35763070	    -45.00000000	    -45.00000000	   -275.09999135	  -2807.68450648	     20.27356910	    -44.26341039	   -346.67947070	     50.01440956	      5.30706684	    -22.34248571
      4.85000000	    -39.91368073	     -8.27829386	      6.26005186	   -183.29325659	    871.27602209	     -9.23617982	     10.18232997	    -45.00000000	     36.42766108	    -45.00000000	    -40.01548621	   1701.17333593	  -1909.02975921	    149.16407545	    -94.72749380	   1096.34426466	     58.22001396	     17.90960254	      4.65817671	     15.30067914	     38.46138191	    -38.57371629	    -45.00000000	    -45.00000000	   -275.00104363	  -2807.47795444	     20.47702231	    -43.47656263	   -346.57628657	     50.56515165	      5.21987095	    -22.37923839
      4.86000000	    -39.91933895	     -8.11748484	      6.02288186	   -181.95438396	    873.76449002	     -9.23546231	     10.05028197	    -45.00000000	     36.77381517	    -45.00000000	    -39.11229314	   1701.11806169	  -1908.81405297	    149.18218809	    -94.83752265	   1096.50165211	     59.46289052	     17.86086141	      4.54020645	     15.56911861	     38.56120861	    -38.87005091	    -45.00000000	    -45.00000000	   -274.76424768	  -2807.36630705	     20.74562951	    -42.78814027	   -346.53070464	     51.09315907	      5.08650341	    -22.34080330
      4.87000000	    -39.92660435	     -7.93487600	      5.75251985	   -180.49521876	    876.29865343	     -9.22227014	     10.10441339	    -45.00000000	     37.13001493	    -45.00000000	    -38.28065758	   1700.99250674	  -1908.63002218	    149.06361532	    -94.95577088	   1096.67988700	     60.72318663	     17.79076842	      4.40827346	     15.49579883	     38.53933936	    -39.15491570	    -45.00000000	    -45.00000000	   -274.62168314	  -2807.18386709	     20.95822676	    -41.97474762	   -346.46064717	     51.51817819	      4.98606062	    -22.33938083
      4.88000000	    -39.93573981	     -7.77901719	      5.51942331	   -178.89918811	    878.83720439	     -9.20247591	     10.18082270	    -45.00000000	     37.44626742	    -45.00000000	    -37.45761572	   1700.81810048	  -1908.43333363	    148.88722593	    -95.09517946	   1096.91921737	     61.97247552	     17.70866779	      4.25418975	     15.28847721	     38.42736886	    -39.45014975	    -45.00000000	    -45.00000000	   -274.46312161	  -2806.94772557	     21.11777678	    -41.14422675	   -346.29365394	     51.83313351	      4.85552637	    -22.33085730
      4.89000000	    -39.97635617	     -7.62834192	      5.25514031	   -177.16086111	    881.34725647	     -9.17496029	      9.94371219	    -45.00000000	     37.83795577	    -45.00000000	    -36.30480652	   1700.83364402	  -1908.20715775	    148.98669267	    -95.20479853	   1097.12087017	     63.52041191	     17.68745788	      4.15097393	     15.77943737	     38.62785088	    -39.81314339	    -45.00000000	    -45.00000000	   -274.19124943	  -2806.86881229	     21.38070162	    -40.43724202	   -346.31246450	     52.14992648	      4.70968089	    -22.24005152
